# AST/ASF file generated using VICON BodyLanguage
# -----------------------------------------------
:version 1.10
:name VICON
:units
  mass 1.0
  length 0.45
  angle deg
:documentation
   .ast/.asf automatically generated from VICON data using
   VICON BodyBuilder and BodyLanguage model FoxedUp or BRILLIANT.MOD
:root
   order TX TY TZ RX RY RZ
   axis XYZ
   position 0 0 0  
   orientation 0 0 0 
:bonedata
  begin
     id 1 
     name lhipjoint
     direction 0.561145 -0.797705 0.220866 
     length 2.46425 
     axis 0 0 0  XYZ
  end
  begin
     id 2 
     name lfemur
     direction 0.34202 -0.939693 0  
     length 7.95556  
     axis 0 0 20  XYZ
    dof rx ry rz
    limits (-160.0 20.0)
           (-70.0 70.0)
           (-60.0 70.0)
  end
  begin
     id 3 
     name ltibia
     direction 0.34202 -0.939693 0   
     length 7.9832   
     axis 0 0 20   XYZ
    dof rx
    limits (-10.0 170.0)
  end
  begin
     id 4 
     name lfoot
     direction 0.0723927 -0.198897 0.977343   
     length 2.23085   
     axis -90 7.62852e-016 20   XYZ
    dof rx rz
    limits (-45.0 90.0)
           (-70.0 20.0)
  end
  begin
     id 5 
     name ltoes
     direction 1.53826e-011 -4.21988e-011 1   
     length 1.12127   
     axis -90 7.62852e-016 20   XYZ
    dof rx
    limits (-90.0 20.0)
  end
  begin
     id 6 
     name rhipjoint
     direction -0.610499 -0.763299 0.21134   
     length 2.57533  
     axis 0 0 0  XYZ 
  end
  begin
     id 7 
     name rfemur
     direction -0.34202 -0.939693 0   
     length 8.65257   
     axis 0 0 -20   XYZ
    dof rx ry rz
    limits (-160.0 20.0)
           (-70.0 70.0)
           (-70.0 60.0)
  end
  begin
     id 8 
     name rtibia
     direction -0.342021 -0.939692 0   
     length 7.37807   
     axis 0 0 -20   XYZ
    dof rx
    limits (-10.0 170.0)
 end
 begin
     id 9 
     name rfoot
     direction -0.0239304 -0.0543852 0.998233   
     length 1.87018  
     axis -90 -7.62852e-016 -20   XYZ
    dof rx rz
    limits (-45.0 90.0)
           (-20.0 70.0)
  end
  begin
     id 10 
     name rtoes
     direction -1.53584e-011 -4.2242e-011 1   
     length 0.951568   
     axis -90 -7.62852e-016 -20   XYZ
    dof rx
    limits (-90.0 20.0)
  end
  begin
     id 11 
     name lowerback
     direction 0.00322089 0.999033 0.0438587   
     length 2.07568   
     axis 0 0 0   XYZ
    dof rx ry rz
    limits (-20.0 45.0)
           (-30.0 30.0)
           (-30.0 30.0)
  end
  begin
     id 12 
     name upperback
     direction -0.00321932 0.999732 -0.0229403   
     length 2.06253   
     axis 0 0 0   XYZ
    dof rx ry rz
    limits (-20.0 45.0)
           (-30.0 30.0)
           (-30.0 30.0)
  end
  begin
     id 13 
     name thorax
     direction -0.00537537 0.998955 -0.0453918   
     length 2.06975   
     axis 0 0 0   XYZ
    dof rx ry rz
    limits (-20.0 45.0)
           (-30.0 30.0)
           (-30.0 30.0)
  end
  begin
     id 14 
     name lowerneck
     direction -0.00013604 0.994111 0.108363   
     length 1.50836   
     axis 0 0 0   XYZ
    dof rx ry rz
    limits (-20.0 45.0)
           (-30.0 30.0)
           (-30.0 30.0)
  end
  begin
     id 15 
     name upperneck
     direction 0.0397262 0.983859 -0.174482   
     length 1.53037   
     axis 0 0 0   XYZ
    dof rx ry rz
    limits (-20.0 45.0)
           (-30.0 30.0)
           (-30.0 30.0)
  end
  begin
     id 16
     name head
     direction 0.0109991 0.997082 -0.0755378  
     length 1.56928  
     axis 0 0 0   XYZ
    dof rx ry rz
    limits (-20.0 45.0)
           (-30.0 30.0)
           (-30.0 30.0)
  end
  begin
     id 17 
     name lclavicle
     direction 0.964749 0.254 -0.068874  
     length 3.26503  
     axis 0 0 0   XYZ
    dof ry rz
    limits (-20.0 10.0)
           (0.0 20.0)
  end
  begin
     id 18 
     name lhumerus
     direction 1 -4.48941e-011 -2.05079e-027   
     length 5.68236   
     axis 180 -30 -90   XYZ
    dof rx ry rz
    limits (-60.0 90.0)
           (-90.0 90.0)
           (-90.0 90.0)
  end
  begin
     id 19
     name lradius
     direction 1 -4.48956e-011 6.2882e-027   
     length 3.17112   
     axis 180 -30 -90   XYZ
    dof rx
    limits (-10.0 170.0)
  end
  begin
     id 20
     name lwrist
     direction 1 -4.49014e-011 1.73219e-026   
     length 1.58556   
     axis -1.04724e-014 90 90   XYZ
    dof ry
    limits (-180.0 0.0)
 end
  begin
     id 21 
     name lhand
     direction 1 -4.49312e-011 3.46438e-026   
     length 0.632691   
     axis -2.21057e-014 90 90   XYZ
    dof rx rz
    limits (-90.0 90.0)
           (-45.0 45.0)
  end
  begin
     id 22 
     name lfingers
     direction 1 -4.48894e-011 6.92876e-026   
     length 0.510091   
     axis -4.42114e-014 90 90   XYZ
    dof rx
    limits (0.0 90.0)
  end
  begin
     id 23
     name lthumb
     direction 0.707107 -6.34705e-011 0.707107   
     length 0.732392   
     axis -90 45 2.85299e-015   XYZ
    dof rx rz
    limits (-45.0 45.0)
           (-45.0 45.0)
  end
  begin
     id 24 
     name rclavicle
     direction -0.954374 0.280496 -0.102435   
     length 3.25419  
     axis 0 0 0   XYZ 
    dof ry rz
    limits (-10.0 20.0)
           (-20.0 0.0)
  end
  begin
     id 25 
     name rhumerus
     direction -1 -4.48994e-011 -1.07204e-017  
     length 5.8712   
     axis 180 30 90   XYZ
    dof rx ry rz
    limits (-90.0 60.0)
           (-90.0 90.0)
           (-90.0 90.0)
  end
  begin
     id 26 
     name rradius
     direction -1 -4.48972e-011 5.89292e-027   
     length 3.37589   
     axis 180 30 90   XYZ
    dof rx
    limits (-10.0 170.0)
  end
  begin
     id 27 
     name rwrist
     direction -1 -4.48942e-011 1.73219e-026   
     length 1.68794   
     axis -1.04724e-014 -90 -90   XYZ
    dof ry
    limits (-180.0 0.0)
  end
  begin
     id 28
     name rhand
     direction -1 -4.48514e-011 3.46438e-026   
     length 0.603257   
     axis -2.21057e-014 -90 -90   XYZ
    dof rx rz
    limits (-90.0 90.0)
           (-45.0 45.0)
  end
  begin
     id 29
     name rfingers
     direction -1 -4.50028e-011 6.92876e-026   
     length 0.486362   
     axis -4.42114e-014 -90 -90   XYZ
    dof rx
    limits (0.0 90.0)
  end
  begin
     id 30
     name rthumb
     direction -0.707107 -6.34926e-011 0.707107   
     length 0.698321   
     axis -90 -45 -2.85299e-015   XYZ
    dof rx rz
    limits (-45.0 45.0)
           (-45.0 45.0)
  end
:hierarchy
  begin
    root lhipjoint rhipjoint lowerback
    lhipjoint lfemur
    lfemur ltibia
    ltibia lfoot
    lfoot ltoes
    rhipjoint rfemur
    rfemur rtibia
    rtibia rfoot
    rfoot rtoes
    lowerback upperback
    upperback thorax
    thorax lowerneck lclavicle rclavicle
    lowerneck upperneck
    upperneck head
    lclavicle lhumerus
    lhumerus lradius
    lradius lwrist
    lwrist lhand lthumb
    lhand lfingers
    rclavicle rhumerus
    rhumerus rradius
    rradius rwrist
    rwrist rhand rthumb
    rhand rfingers
  end

#!OML:ASF I:\Segmentation\Patient Classification 1\Patient 1\Session 1\Patient1.ASF
:FULLY-SPECIFIED
:DEGREES
750
root 22.5655 18.2359 -12.1875 -352.478 -82.6037 0.128017
lowerback -6.35107 -1.05043 -2.29854
upperback 3.39947 -1.27381 1.02779
thorax 7.20612 -0.770178 2.20963
lowerneck -17.588 4.29751 2.40199
upperneck 24.1506 6.21517 -4.11847
head 10.9188 2.44108 -1.00273
rclavicle 1.24489e-014 -8.74653e-015
rhumerus -36.6023 -11.0674 -74.095
rradius 34.048
rwrist 17.2432
rhand -17.2057 28.8986
rfingers 7.12502
rthumb 9.03682 -0.887818
lclavicle 1.24489e-014 -8.74653e-015
lhumerus -19.4457 -9.25287 88.404
lradius 33.8171
lwrist 11.2451
lhand -13.6603 33.5911
lfingers 7.12502
lthumb 12.4566 63.1999
rfemur -33.2041 15.6573 11.6567
rtibia 12.4243
rfoot 6.85323 -3.74877
rtoes 45.4535
lfemur -4.74033 -1.12655 -26.202
ltibia 20.7167
lfoot -19.7945 -1.62506
ltoes -8.49297
751
root 22.4716 18.2229 -12.1814 -353.283 -82.1149 0.905521
lowerback -6.38336 -1.04016 -2.25278
upperback 3.37811 -1.26108 0.996457
thorax 7.1992 -0.760281 2.15226
lowerneck -17.6573 4.24958 2.4165
upperneck 24.2402 6.14079 -4.09506
head 10.9623 2.40903 -1.00658
rclavicle -1.38155e-014 9.83984e-015
rhumerus -36.5794 -11.0411 -74.0401
rradius 34.2068
rwrist 16.983
rhand -17.389 28.9995
rfingers 7.12502
rthumb 8.85993 -0.794503
lclavicle -1.38155e-014 9.83984e-015
lhumerus -19.7093 -8.88932 88.5171
lradius 33.2548
lwrist 10.8793
lhand -13.4232 33.5137
lfingers 7.12502
lthumb 12.6852 63.1085
rfemur -33.1713 15.8716 11.5329
rtibia 12.6491
rfoot 7.2472 -4.57599
rtoes 46.2542
lfemur -4.33635 -1.28659 -26.2305
ltibia 20.6235
lfoot -19.7174 -1.97373
ltoes -7.99153
752
root 22.3766 18.2097 -12.1753 -353.794 -81.6643 1.38573
lowerback -6.42818 -1.01129 -2.18772
upperback 3.36178 -1.22637 0.982944
thorax 7.20368 -0.739403 2.10539
lowerneck -17.7156 4.20187 2.42086
upperneck 24.3056 6.07256 -4.08399
head 10.9951 2.37816 -1.01248
rclavicle 2.52457e-014 -1.98785e-015
rhumerus -36.5663 -10.9716 -73.9775
rradius 34.3828
rwrist 16.7128
rhand -17.5855 29.058
rfingers 7.12502
rthumb 8.67038 -0.743976
lclavicle 2.52457e-014 -1.98785e-015
lhumerus -19.9878 -8.51561 88.6509
lradius 32.7509
lwrist 10.5519
lhand -13.2227 33.6749
lfingers 7.12502
lthumb 12.8785 63.2575
rfemur -33.1558 16.1041 11.4469
rtibia 12.9699
rfoot 7.53722 -5.59863
rtoes 46.8859
lfemur -3.92249 -1.42951 -26.234
ltibia 20.5222
lfoot -19.6636 -2.25078
ltoes -7.63047
753
root 22.2795 18.1969 -12.1696 -354.215 -81.1938 1.76484
lowerback -6.47526 -0.989432 -2.13225
upperback 3.353 -1.20122 0.98364
thorax 7.21875 -0.724341 2.07758
lowerneck -17.724 4.15543 2.42077
upperneck 24.2979 6.0117 -4.09436
head 10.9919 2.35021 -1.02502
rclavicle 2.79044e-014 -1.25234e-014
rhumerus -36.5601 -10.8638 -73.9129
rradius 34.5807
rwrist 16.4377
rhand -17.7545 29.0306
rfingers 7.12502
rthumb 8.50728 -0.778051
lclavicle 2.79044e-014 -1.25234e-014
lhumerus -20.2949 -8.16199 88.7959
lradius 32.3005
lwrist 10.3154
lhand -13.1313 33.9529
lfingers 7.12502
lthumb 12.9666 63.53
rfemur -33.1345 16.4185 11.3171
rtibia 13.3832
rfoot 7.54032 -6.92777
rtoes 47.1427
lfemur -3.47439 -1.56394 -26.2257
ltibia 20.4143
lfoot -19.6116 -2.51823
ltoes -7.31817
754
root 22.1799 18.1856 -12.1648 -354.589 -80.6415 2.07713
lowerback -6.51655 -0.998633 -2.09344
upperback 3.35537 -1.21744 0.999236
thorax 7.24548 -0.73112 2.06952
lowerneck -17.6775 4.10976 2.42739
upperneck 24.2014 5.95791 -4.14103
head 10.9468 2.32466 -1.05143
rclavicle -8.34896e-015 3.18055e-015
rhumerus -36.5498 -10.7387 -73.8471
rradius 34.786
rwrist 16.1717
rhand -17.8521 28.9059
rfingers 7.12502
rthumb 8.4131 -0.906517
lclavicle -8.34896e-015 3.18055e-015
lhumerus -20.6187 -7.82361 88.9399
lradius 31.856
lwrist 10.1493
lhand -13.1695 34.1897
lfingers 7.12502
lthumb 12.9298 63.7691
rfemur -33.0762 16.826 11.1153
rtibia 13.8745
rfoot 7.05478 -8.61557
rtoes 46.7016
lfemur -2.98483 -1.73829 -26.1984
ltibia 20.3141
lfoot -19.5362 -2.82069
ltoes -6.89922
755
root 22.0781 18.1773 -12.1605 -354.807 -79.9976 2.22712
lowerback -6.56228 -1.04407 -2.05151
upperback 3.36634 -1.28423 1.03826
thorax 7.28727 -0.763534 2.07766
lowerneck -17.6233 4.06608 2.43146
upperneck 24.066 5.91533 -4.21941
head 10.8874 2.30112 -1.08708
rclavicle -8.15017e-015 -8.94531e-015
rhumerus -36.5134 -10.6159 -73.7684
rradius 34.9623
rwrist 15.9453
rhand -17.8968 28.7455
rfingers 7.12502
rthumb 8.36992 -1.06867
lclavicle -8.15017e-015 -8.94531e-015
lhumerus -20.9333 -7.46583 89.0782
lradius 31.3638
lwrist 9.99089
lhand -13.2932 34.294
lfingers 7.12502
lthumb 12.8106 63.881
rfemur -32.9781 17.2502 10.8961
rtibia 14.4193
rfoot 5.97918 -10.5272
rtoes 45.225
lfemur -2.4956 -2.006 -26.1314
ltibia 20.2528
lfoot -19.4432 -3.13559
ltoes -6.30609
756
root 21.9756 18.1737 -12.1563 -354.771 -79.3069 2.13803
lowerback -6.6239 -1.11131 -1.97993
upperback 3.37877 -1.38522 1.10875
thorax 7.34176 -0.812337 2.09739
lowerneck -17.6249 4.02787 2.40228
upperneck 23.9685 5.89071 -4.29667
head 10.8526 2.28104 -1.1132
rclavicle 1.14301e-014 1.78906e-015
rhumerus -36.4282 -10.5091 -73.6582
rradius 35.0641
rwrist 15.791
rhand -17.9442 28.6658
rfingers 7.12502
rthumb 8.32415 -1.15018
lclavicle 1.14301e-014 1.78906e-015
lhumerus -21.2215 -7.04373 89.2118
lradius 30.804
lwrist 9.76641
lhand -13.4048 34.2761
lfingers 7.12502
lthumb 12.703 63.8698
rfemur -32.8703 17.5921 10.7392
rtibia 15.0005
rfoot 4.41629 -12.366
rtoes 42.6322
lfemur -2.06833 -2.38945 -26.0115
ltibia 20.2655
lfoot -19.3743 -3.39985
ltoes -5.61281
